Coordinates
version=1
nRows=16
nColumns=36
inDegrees=yes

Units are S.I. units (second, meters, Newtons, ...)
If the header above contains a line with 'inDegrees', this indicates whether rotational values are in degrees (yes) or radians (no).

endheader
time	pelvis_tilt	pelvis_list	pelvis_rotation	pelvis_tx	pelvis_ty	pelvis_tz	hip_flexion_r	hip_adduction_r	hip_rotation_r	knee_angle_r	knee_angle_r_beta	ankle_angle_r	subtalar_angle_r	mtp_angle_r	hip_flexion_l	hip_adduction_l	hip_rotation_l	knee_angle_l	knee_angle_l_beta	ankle_angle_l	subtalar_angle_l	mtp_angle_l	lumbar_extension	lumbar_bending	lumbar_rotation	arm_flex_r	arm_add_r	arm_rot_r	elbow_flex_r	pro_sup_r	arm_flex_l	arm_add_l	arm_rot_l	elbow_flex_l	pro_sup_l
      0.00000000	     -0.07669245	      0.75858112	     -0.40606899	      0.58760086	      0.95811090	     -0.24821971	      9.76361512	     -6.23930059	     -4.74652601	     51.65078990	      0.90147634	    -11.26947583	    -15.41813740	     -6.30734550	      0.55845232	      6.66506979	      6.20777526	     11.03466197	      0.19259118	     10.17632496	     -5.96677010	     -6.30734550	     -3.64836927	     -2.26972551	      3.09749232	     53.45984705	     15.71521489	     62.45388103	    119.67875439	    102.06227075	     44.33854360	     11.11668777	     67.62074095	    123.24217153	    103.66807488
      0.01666670	     -0.69405766	      0.43413617	      1.74498608	      0.58874640	      0.95128916	     -0.24976341	     10.30825283	     -6.51337468	     -6.73719693	     52.52854338	      0.91679603	     -9.69725988	    -13.09935668	     -6.39502450	      0.80113768	      6.37045768	      8.41372553	     10.00040608	      0.17454001	     10.26073539	     -4.37974652	     -6.39502450	     -3.02847176	     -2.10050279	      0.70789566	     56.39936995	     16.74102963	     62.77724744	    121.78187785	    101.78436846	     46.89784864	     11.02948224	     68.89984665	    126.74544246	     99.70333438
      0.03333330	     -1.53131018	      0.94480211	      2.75836646	      0.59363985	      0.94705995	     -0.24727149	     11.17628416	     -7.32594024	     -7.69270673	     53.39431705	      0.93190663	     -7.62600602	    -12.86790000	     -6.62122244	      1.03607708	      6.79505517	      8.36829465	      9.14500654	      0.15961047	      9.77349293	     -2.87107819	     -6.62122244	     -1.67860754	     -2.94478019	      0.41500752	     56.65560642	     16.73603120	     62.85373284	    122.65219113	    103.98070322	     47.57180908	     10.10459943	     69.03646137	    128.59937436	     92.87633093
      0.05000000	     -1.65746316	      1.52739194	      3.55179830	      0.59399808	      0.94703248	     -0.24751214	     11.05521992	     -7.97268153	     -8.30566443	     54.02157215	      0.94285430	     -6.55777075	    -12.07906331	     -6.88848625	      0.85756191	      7.49431842	      9.75262655	      8.82451569	      0.15401685	      9.23088319	     -3.54968182	     -6.88848625	     -1.53401132	     -4.01596325	      0.09971000	     56.50240066	     16.47102139	     63.64211650	    123.05162847	    102.73981172	     48.20375294	     10.02911038	     69.56420920	    128.31645818	     88.22416118
      0.06666670	     -1.73879675	      1.81446773	      4.17727877	      0.59422949	      0.94685916	     -0.24769393	     10.83981831	     -8.33173309	     -8.98070801	     53.91122896	      0.94092845	     -5.27893179	    -11.64872559	     -7.13012141	      0.45746005	      7.70890141	     10.49294031	      8.10246165	      0.14141463	      8.95689683	     -3.56402625	     -7.13012141	     -1.46963413	     -4.45141395	     -0.02268125	     56.08990194	     15.97901188	     64.20567583	    122.60379012	    102.31120748	     48.26947045	     10.17463022	     70.31692652	    127.83957237	     84.19190430
      0.08333330	     -1.84311542	      2.17293538	      4.87056089	      0.59018887	      0.94686933	     -0.25027019	     10.88346234	     -8.77823737	     -9.53333301	     53.82865729	      0.93948730	     -4.57654900	    -12.28343443	     -7.13177274	      0.52138399	      8.09520169	     11.07637285	      7.91868640	      0.13820715	      9.10693663	     -3.48750588	     -7.13177274	     -1.74736418	     -4.68160644	     -0.11403587	     55.90797888	     15.61530825	     64.58193487	    122.04124166	    102.28467341	     48.43648892	     10.68350856	     70.57238137	    127.71420397	     84.15449370
      0.10000000	     -1.62697376	      2.32099497	      5.33011677	      0.59004922	      0.94719271	     -0.25045724	     10.56370102	     -9.05175414	    -10.10796778	     53.72982911	      0.93776242	     -4.49070196	    -12.05742506	     -7.28715509	      0.26001269	      8.26911804	     12.30967014	      7.82261135	      0.13653032	      9.10904572	     -4.10409841	     -7.28715509	     -2.31430859	     -4.85413651	     -0.55462375	     56.15624171	     15.69746863	     64.87123719	    121.40227856	     99.98940009	     49.00534823	     11.04212284	     71.34301453	    127.10486742	     79.05504956
      0.11666670	     -1.52936783	      2.43146712	      5.61665393	      0.59403897	      0.94754647	     -0.24807332	     10.15365399	     -9.11908508	    -10.55472267	     53.38846581	      0.93180451	     -4.31172341	    -12.14881929	     -7.28991397	      0.00711927	      8.31771130	     12.64795332	      7.65377292	      0.13358354	      9.09346502	     -4.01696433	     -7.28991397	     -2.41849709	     -5.13380167	     -0.81961727	     56.01611044	     15.94398072	     65.09416542	    120.97617211	     99.91553925	     48.89968192	     10.99478942	     71.31711528	    126.63917776	     78.86027524
      0.13333330	     -1.43691139	      2.49958116	      5.73346377	      0.58981530	      0.94785833	     -0.25042578	     10.08841364	     -9.25672192	    -10.77090947	     53.42246853	      0.93239797	     -3.98281133	    -12.47536456	     -7.29136222	      0.03533371	      8.45444993	     12.90002090	      7.79373898	      0.13602641	      9.36521941	     -4.16208018	     -7.29136222	     -2.73322614	     -5.21179716	     -1.09063705	     55.90798430	     16.09378060	     64.96741486	    120.88963981	     99.82813587	     49.07450972	     10.81005415	     70.89017132	    126.39627158	     78.65027478
      0.15000000	     -1.21992432	      2.49478587	      5.93088886	      0.59378107	      0.94856449	     -0.24824357	      9.54820509	     -9.24787806	    -11.23006309	     53.19582784	      0.92844234	     -4.00558724	    -12.17736049	     -7.29509984	     -0.30674134	      8.37346306	     13.23481064	      7.70042771	      0.13439782	      9.23967849	     -4.24533416	     -7.29509984	     -2.75528660	     -5.31269822	     -1.60048580	     55.47441956	     16.49628593	     64.77963300	    120.68564259	     99.52194914	     48.57716351	     10.69695674	     70.86861297	    126.18763027	     77.97255107
      0.16666670	     -1.50003319	      2.52756865	      5.91288336	      0.59355534	      0.95015669	     -0.24776150	      9.58743862	     -9.15138288	    -11.28007320	     52.69791316	      0.91975209	     -3.77773963	    -12.04663538	     -7.30512628	      0.00683019	      8.38875635	     13.15310297	      7.80074131	      0.13614862	      9.56737056	     -3.97874160	     -7.30512628	     -2.38221177	     -5.52198975	     -1.39616986	     55.44404798	     16.60687760	     64.91509505	    120.47846761	     98.37892393	     48.28098574	     10.80172953	     71.06329017	    126.00180704	     77.43155605
      0.18333330	     -0.94404764	      2.41758734	      6.08113794	      0.59325971	      0.95056809	     -0.24798366	      8.68714066	     -8.91837237	    -11.56642478	     52.16756504	      0.91049577	     -4.31038656	    -12.07124200	     -7.35637719	     -0.65570146	      8.17571981	     13.74496896	      7.71326250	      0.13462183	      9.14003840	     -4.62269429	     -7.35637719	     -3.08026288	     -5.43411562	     -1.62209580	     55.40489718	     16.57864448	     65.10493797	    120.89328532	     95.85965405	     48.16966098	     10.57923889	     71.56737019	    126.41560882	     69.50737084
      0.20000000	     -0.90063847	      2.34553725	      6.13384343	      0.59321878	      0.95055307	     -0.24785210	      8.59319792	     -8.82937564	    -11.68912304	     51.97310912	      0.90710188	     -4.28438471	    -12.15079179	     -7.36663838	     -0.71623107	      8.04925049	     13.97516388	      7.76901528	      0.13559490	      9.34400167	     -4.58523462	     -7.36663838	     -3.28685190	     -5.32796177	     -1.53632451	     55.41826492	     16.56345485	     65.29793809	    121.23680761	     94.86412022	     48.07863571	     10.32392655	     71.33734610	    126.44032583	     69.21038664
      0.21666670	     -0.78504843	      2.22456588	      6.27810029	      0.59305934	      0.95044783	     -0.24802593	      8.43661795	     -8.70515335	    -11.84753666	     51.94283409	      0.90657348	     -4.39570548	    -12.14365282	     -7.37465868	     -0.77701100	      7.90283647	     14.36949894	      7.84828356	      0.13697839	      9.38563077	     -4.74595397	     -7.37465868	     -3.63575588	     -5.06681991	     -1.52484067	     55.54523593	     16.45681109	     65.26281815	    121.51649822	     94.20241947	     48.12706033	     10.30899013	     71.15003216	    126.77947763	     68.85093744
      0.23333330	     -0.86055776	      2.25939055	      6.45484672	      0.59325463	      0.94837699	     -0.24822556	      8.42032445	     -8.71147109	    -11.93007087	     51.80955264	      0.90424728	     -4.20250835	    -12.26756417	     -7.38229140	     -0.52428023	      7.96507054	     14.74314794	      8.25463702	      0.14407059	      9.65993193	     -4.78249489	     -7.38229140	     -3.73363896	     -4.99479865	     -1.44677182	     55.23746621	     16.34163822	     65.12755549	    121.66157735	     93.35689834	     48.00375316	     10.24156841	     70.94246334	    126.92173882	     68.53378623
      0.25000000	     -0.62833207	      2.21043268	      6.66333180	      0.59308269	      0.94863620	     -0.24843770	      8.18736913	     -8.71576765	    -12.16101151	     51.89620441	      0.90575964	     -4.39264443	    -12.34666982	     -7.42896561	     -0.62864146	      7.93824195	     15.40827174	      8.61418976	      0.15034597	      9.74766573	     -5.49817441	     -7.42896561	     -4.24522356	     -4.81480306	     -1.23434547	     55.52045647	     16.06908090	     64.75237376	    121.95279216	     94.32468238	     48.22172200	     10.46116222	     70.90666055	    127.19133820	     68.27612576
